<?xml version="1.0" encoding="iso-8859-1"?>
<!-- Generator: Adobe Illustrator 16.0.0, SVG Export Plug-In . SVG Version: 6.00 Build 0)  -->
<!DOCTYPE svg PUBLIC "-//W3C//DTD SVG 1.1//EN" "http://www.w3.org/Graphics/SVG/1.1/DTD/svg11.dtd">
<svg version="1.1" id="Capa_1" xmlns="http://www.w3.org/2000/svg" xmlns:xlink="http://www.w3.org/1999/xlink" x="0px" y="0px"
	 width="394.382px" height="394.382px" viewBox="0 0 394.382 394.382" style="enable-background:new 0 0 394.382 394.382;"
	 xml:space="preserve">
<g>
	<g>
		<path d="M343.958,146.179c-18.919-52.181-65.994-90.199-120.973-99.409c-0.913-0.335-1.894-0.591-3.002-0.654
			c-0.688-0.037-1.431-0.03-2.125-0.061c-6.808-0.911-13.683-1.48-20.673-1.48c-65.69,0-124.956,41.422-146.779,101.604
			C22.56,146.505,0,169.257,0,197.194c0,27.925,22.56,50.686,50.412,51.009c21.823,60.179,81.083,101.604,146.779,101.604
			c25.574,0,50.132-6.352,71.919-17.567c-4.999-4.372-9.84-9.17-14.145-14.327c-17.769,8.189-37.4,12.817-57.78,12.817
			c-59.984,0-113.825-39.214-130.941-95.356l-2.399-7.867l-8.126,1.218c-1.827,0.274-3.331,0.39-4.707,0.39
			c-17.61,0-31.932-14.321-31.932-31.932c0-17.604,14.322-31.935,31.932-31.935c1.376,0,2.88,0.131,4.719,0.393l8.12,1.2
			l2.393-7.858c11.603-38.06,40.112-68.29,75.947-83.838c-8.001,17.719,2.862,39.555,20.968,48.08
			c22.566,10.62,59.071,11.996,74.465-11.094c6.941-10.407,0.779-23.568-7.612-30.689c-11.764-9.971-28.825-11.387-42.785-5.849
			c-11.298,4.484-6.378,22.947,5.075,18.407c8.3-3.285,15.851-3.535,23.814,0.834c10.925,6.007,0.859,12.863-6.776,15.059
			c-14.23,4.092-35.226,0.755-46.354-9.234c-14.042-12.607,4.046-26.917,15.238-30.832c12.142-4.253,25.478-5.194,38.319-4.729
			c51.916,7.39,96.343,43.879,111.59,93.892l2.399,7.858l8.123-1.199c1.826-0.269,3.336-0.393,4.713-0.393
			c17.609,0,31.932,14.325,31.932,31.941c0,17.598-14.322,31.931-31.932,31.931c-1.377,0-2.887-0.127-4.701-0.396l-8.135-1.212
			l-2.399,7.867c-0.853,2.789-1.863,5.523-2.893,8.232c2.893-0.682,5.9-1.071,8.994-1.071c6.795,0,13.177,1.705,18.778,4.713
			c23.517-4.53,41.37-25.228,41.37-50.064C394.376,169.257,371.816,146.499,343.958,146.179z"/>
		<path d="M156.893,190.563c-16.404,0-16.404,25.441,0,25.441S173.303,190.563,156.893,190.563z"/>
		<path d="M237.471,188.974c-16.41,0-16.41,25.446,0,25.446C253.875,214.414,253.881,188.974,237.471,188.974z"/>
		<path d="M197.185,279.885c20.685,0,37.527-16.836,37.527-37.521c0-5.285-4.28-9.541-9.548-9.541c-5.261,0-9.535,4.262-9.535,9.541
			c0,10.169-8.275,18.438-18.438,18.438c-10.163,0-18.444-8.269-18.444-18.438c0-5.285-4.271-9.541-9.539-9.541
			c-5.271,0-9.542,4.262-9.542,9.541C159.661,263.049,176.497,279.885,197.185,279.885z"/>
		<path d="M306.802,259.882c-38.478-22.073-91.216,39.78,0,86.558C398.973,299.163,344.098,238.503,306.802,259.882z
			 M306.802,324.792c-45.565-27.023-32.803-50.284-16.776-50.284c7.496,0,11.192,5.048,16.776,10.34
			c5.571-5.279,9.273-10.334,16.775-10.334C337.692,274.514,354.231,296.588,306.802,324.792z"/>
	</g>
</g>
<g>
</g>
<g>
</g>
<g>
</g>
<g>
</g>
<g>
</g>
<g>
</g>
<g>
</g>
<g>
</g>
<g>
</g>
<g>
</g>
<g>
</g>
<g>
</g>
<g>
</g>
<g>
</g>
<g>
</g>
</svg>
