<?xml version="1.0" standalone="no"?>
<!DOCTYPE svg PUBLIC "-//W3C//DTD SVG 20010904//EN"
 "http://www.w3.org/TR/2001/REC-SVG-20010904/DTD/svg10.dtd">
<svg version="1.0" xmlns="http://www.w3.org/2000/svg"
 width="500.000000pt" height="500.000000pt" viewBox="0 0 500.000000 500.000000"
 preserveAspectRatio="xMidYMid meet">
<metadata>
Created by potrace 1.11, written by Peter Selinger 2001-2013
</metadata>
<g transform="translate(0.000000,500.000000) scale(0.100000,-0.100000)"
fill="#000000" stroke="none">
<path d="M2325 4994 c-612 -51 -1167 -305 -1590 -729 -386 -385 -626 -869
-712 -1432 -22 -149 -22 -517 0 -666 86 -563 326 -1047 712 -1432 385 -386
858 -621 1430 -712 136 -21 504 -24 640 -5 476 67 876 235 1245 520 106 83
316 291 400 397 216 273 384 609 465 930 125 496 108 972 -50 1435 -310 903
-1078 1538 -2027 1675 -103 15 -419 27 -513 19z m-27 -2081 l-3 -878 -23 -70
c-84 -251 -283 -419 -557 -470 -117 -22 -323 -16 -442 14 -309 77 -493 298
-493 593 l0 78 223 -2 222 -3 6 -55 c19 -170 91 -253 244 -281 156 -29 298 57
345 209 19 62 20 93 20 903 l0 839 230 0 231 0 -3 -877z m1413 -3 c164 -481
339 -993 389 -1137 l90 -263 -233 0 -232 0 -76 243 -76 242 -399 3 -399 2 -76
-242 -76 -243 -232 -3 c-127 -1 -231 -1 -231 1 0 2 120 352 266 778 146 426
318 927 381 1114 64 187 119 350 124 363 l9 22 236 -2 236 -3 299 -875z"/>
<path d="M3167 3245 c-115 -363 -276 -889 -273 -892 1 -2 129 -2 283 -1 l281
3 -137 440 c-165 528 -146 475 -154 450z"/>
</g>
</svg>
